<?xml version="1.0" encoding="UTF-8" standalone="no"?>
<svg
   viewBox="0 0 200 200"
   version="1.1"
   id="svg148"
   sodipodi:docname="favicon.svg"
   inkscape:version="1.2.2 (b0a84865, 2022-12-01)"
   xmlns:inkscape="http://www.inkscape.org/namespaces/inkscape"
   xmlns:sodipodi="http://sodipodi.sourceforge.net/DTD/sodipodi-0.dtd"
   xmlns="http://www.w3.org/2000/svg"
   xmlns:svg="http://www.w3.org/2000/svg">
  <defs
     id="defs152" />
  <sodipodi:namedview
     id="namedview150"
     pagecolor="#ffffff"
     bordercolor="#000000"
     borderopacity="0.25"
     inkscape:showpageshadow="2"
     inkscape:pageopacity="0.0"
     inkscape:pagecheckerboard="0"
     inkscape:deskcolor="#d1d1d1"
     showgrid="false"
     inkscape:zoom="1.668772"
     inkscape:cx="93.182292"
     inkscape:cy="186.06496"
     inkscape:window-width="1440"
     inkscape:window-height="799"
     inkscape:window-x="0"
     inkscape:window-y="25"
     inkscape:window-maximized="0"
     inkscape:current-layer="svg148" />
  <path
     d="m 102,3.8134993 c 52.3401,0 89.52912,36.5106167 89.52912,83.4528397 0,33.902721 -17.90582,54.765931 -34.43428,75.629141 v 14.86321 H 46.905145 V 162.89548 C 30.37669,142.03227 12.470863,121.16906 12.470863,87.266339 12.470863,40.324116 49.659887,3.8134993 102,3.8134993 Z"
     fill="none"
     stroke="#1a1a1a"
     stroke-width="6.99999"
     stroke-linejoin="round"
     id="path132"
     style="fill:#ffff1d;fill-opacity:0.686007;stroke-width:9.1;stroke-dasharray:none"
     sodipodi:nodetypes="ssccccss" />
  <g
     stroke="#1a1a1a"
     stroke-width="4.47709"
     stroke-linecap="round"
     id="g140"
     transform="matrix(1.3773713,0,0,1.3039506,-35.43751,-23.150514)"
     style="stroke-width:3.13396;stroke-dasharray:none">
    <line
       x1="63.846184"
       y1="164.85765"
       x2="135.84618"
       y2="164.85765"
       id="line134"
       style="stroke-width:3.13396;stroke-dasharray:none" />
    <line
       x1="62"
       y1="169.66109"
       x2="138"
       y2="169.66109"
       id="line136"
       style="stroke-width:3.13396;stroke-dasharray:none" />
    <line
       x1="62.153816"
       y1="160.08191"
       x2="138.15382"
       y2="160.08191"
       id="line138"
       style="stroke-width:3.13396;stroke-dasharray:none" />
  </g>
  <!-- E: script epsilon-style, then ligature into P -->
  <!-- P: stem + bowl -->
  <g
     id="g433"
     transform="matrix(1.5941587,0,0,1.9202189,-30.005229,-69.052131)"
     style="stroke:#f7771a;stroke-width:6.51574;stroke-dasharray:none;stroke-opacity:0.822526">
    <path
       d="m 75.702475,66.307864 c -20,-9 -33,0 -28,10 3,8 17,11.972005 21,4.972005 -10.063204,4.600659 -26,11.027995 -21,23.028001 5,11 27.645022,14.324 34.518615,-11.226018"
       fill="none"
       stroke="#f5a623"
       stroke-width="3.47918"
       stroke-linecap="round"
       stroke-linejoin="round"
       id="path144"
       style="stroke:#800a1a;stroke-width:7.2016;stroke-dasharray:none;stroke-opacity:0.822526"
       sodipodi:nodetypes="ccccc" />
    <path
       d="m 91.34254,70.579965 c 15.94525,-20.077162 36,-5.510476 33,9.489524 -3,15.000001 -22,13 -28.000001,2 l -0.732213,36.914971"
       fill="none"
       stroke="#f5a623"
       stroke-width="3.47918"
       stroke-linecap="round"
       stroke-linejoin="round"
       id="path146"
       sodipodi:nodetypes="cscc"
       style="stroke:#800a1a;stroke-width:7.2016;stroke-dasharray:none;stroke-opacity:0.822526" />
  </g>
</svg>
